# xmcd
#
# Track frame offsets:
#	150
#	18089
#	36989
#	48306
#	65292
#	88319
#	103989
#	124254
#	142364
#	157866
#	171243
#	187185
#	197222
#	219724
#	235499
#	249211
#	272132
#	286286
#	303196
#
# Disc length: 4208 seconds
#
# Revision: 0
# Processed by: cddbd v1.5.2PL0 Copyright (c) Steve Scherf et al.
# Submitted via: dBpowerAMP V4.0
#
DISCID=22106e13
DTITLE=Various Artist - Daptone Sampler
DYEAR=2006
DGENRE=R&B
TTITLE0=Genuine - Sharon Jones and The Dap Kings
TTITLE1=More Mess On My Thing - The Poets Of Rhythm
TTITLE2=Promised Land - Sugarman 3
TTITLE3=Never Found A Girl - The Mighty Imperials
TTITLE4=Eltsuhg Ibal Lasiti - The Daktaris
TTITLE5=It Came Over Me - The Poets Of Rhythm
TTITLE6=Ain't It Hard - Sharon Jones and The Dap Kings
TTITLE7=Turtle Walk - Sugarman 3
TTITLE8=Up From The South - The Budos Band
TTITLE9=Got A Thing On My Mind - Sharon Jones and The Dap Kings
TTITLE10=Chicken Half - Sugarman 3
TTITLE11=Ghost Walk - The Budos Band
TTITLE12=What If We All Stopped Paying Taxes? - Sharon Jones and The Dap Kings
TTITLE13=Could Have Been - Sugarman 3
TTITLE14=How Do I Let A Good Man Down? - Sharon Jones and The Dap Kings
TTITLE15=Che Che Cole - Antibalas
TTITLE16=Thunder Chicken - The Mighty Imperials
TTITLE17=Super Afro Beat - The Daktaris
TTITLE18=Stand Up Pt.1 - Sugarman 3
EXTD=Sampler of New York funky label Dap-Tone Records
EXTT0=
EXTT1=
EXTT2=
EXTT3=
EXTT4=
EXTT5=
EXTT6=
EXTT7=
EXTT8=
EXTT9=
EXTT10=
EXTT11=
EXTT12=
EXTT13=
EXTT14=
EXTT15=
EXTT16=
EXTT17=
EXTT18=
PLAYORDER=
